<svg width="31" height="17" viewBox="0 0 31 17" fill="none" xmlns="http://www.w3.org/2000/svg">
<path d="M28.1818 5.63636H16.4159C15.2605 2.35318 12.1323 0 8.45455 0C3.79045 0 0 3.79045 0 8.45455C0 13.1186 3.79045 16.9091 8.45455 16.9091C12.1323 16.9091 15.2605 14.5559 16.4159 11.2727H16.9091L19.7273 14.0909L22.5455 11.2727L25.3636 14.0909L31 8.39818L28.1818 5.63636ZM8.45455 12.6818C6.12955 12.6818 4.22727 10.7795 4.22727 8.45455C4.22727 6.12955 6.12955 4.22727 8.45455 4.22727C10.7795 4.22727 12.6818 6.12955 12.6818 8.45455C12.6818 10.7795 10.7795 12.6818 8.45455 12.6818Z" fill="black"/>
</svg>
