<svg width="22" height="22" viewBox="0 0 22 22" fill="none" xmlns="http://www.w3.org/2000/svg">
<circle cx="11" cy="11" r="11" fill="#73C6B6"/>
<path d="M6.16464 16.8584C5.90566 16.9636 5.65962 16.9405 5.42653 16.789C5.19345 16.638 5.0769 16.4179 5.0769 16.1286V13.1895C5.0769 13.0054 5.1287 12.8411 5.2323 12.6964C5.33589 12.5518 5.47833 12.4597 5.65962 12.4203L11.2926 11.0001L5.65962 9.57986C5.47833 9.54041 5.33589 9.44836 5.2323 9.30371C5.1287 9.15906 5.0769 8.99468 5.0769 8.81058V5.87155C5.0769 5.58225 5.19345 5.36186 5.42653 5.21037C5.65962 5.05941 5.90566 5.03652 6.16464 5.14172L18.1298 10.2702C18.4535 10.4149 18.6154 10.6582 18.6154 11.0001C18.6154 11.342 18.4535 11.5852 18.1298 11.7299L6.16464 16.8584Z" fill="white"/>
</svg>
